<svg fill="none" height="449" viewBox="0 0 729 449" width="729" xmlns="http://www.w3.org/2000/svg"><path d="m471.872 318.696h56.998v133.3h-56.998z" fill="#333"/><path d="m502.962 311.971h25.908v7.588h-25.908z" fill="#333"/><path d="m513.843 307.66h15.027v4.311h-15.027z" fill="#333"/><path d="m495.707 328.008h9.327v6.898h-9.327z" fill="#fff" opacity=".06"/><path d="m495.707 345.08h9.327v6.898h-9.327z" fill="#fff" opacity=".12"/><path d="m495.707 379.224h9.327v6.898h-9.327z" fill="#fff" opacity=".19"/><path d="m495.707 413.368h9.327v6.898h-9.327z" fill="#fff" opacity=".14"/><path d="m495.707 430.44h9.327v6.898h-9.327z" fill="#fff" opacity=".1"/><path d="m614.884 333.181h78.07v71.392h-78.07z" fill="#333"/><path d="m627.147 326.801h53.371v30.695h-53.371z" fill="#333"/><path d="m609.185 378.189h78.069v71.392h-78.069z" fill="#333"/><path d="m621.62 371.808h53.371v30.695h-53.371z" fill="#333"/><path d="m505.207 368.704h78.069v82.257h-78.069z" fill="#333"/><path d="m517.47 361.462h53.371v35.523h-53.371z" fill="#333"/><path d="m243.881 393.71h78.07v79.496h-78.07z" fill="#333"/><path d="m256.144 386.639h53.371v34.317h-53.371z" fill="#333"/><path d="m413.147 229.542h87.224v221.247h-87.224z" fill="#333"/><path d="m474.981 239.544h21.072v3.967h-21.072z" fill="#e6e6e6" opacity=".46"/><path d="m446.136 239.544h21.072v3.967h-21.072z" fill="#e6e6e6" opacity=".34"/><path d="m417.465 239.544h21.072v3.967h-21.072z" fill="#e6e6e6" opacity=".52"/><path d="m474.981 248.684h21.072v3.966h-21.072z" fill="#e6e6e6" opacity=".54"/><path d="m446.136 248.684h21.072v3.966h-21.072z" fill="#e6e6e6" opacity=".3"/><path d="m417.465 248.684h21.072v3.966h-21.072z" fill="#e6e6e6" opacity=".06"/><path d="m474.981 257.823h21.072v3.967h-21.072z" fill="#e6e6e6" opacity=".15"/><path d="m446.136 257.823h21.072v3.967h-21.072z" fill="#e6e6e6" opacity=".42"/><path d="m417.465 257.823h21.072v3.967h-21.072z" fill="#e6e6e6" opacity=".48"/><path d="m474.981 266.963h21.072v3.966h-21.072z" fill="#e6e6e6" opacity=".18"/><path d="m417.465 266.963h21.072v3.966h-21.072z" fill="#e6e6e6" opacity=".28"/><path d="m474.981 276.102h21.072v3.967h-21.072z" fill="#e6e6e6" opacity=".29"/><path d="m446.136 276.102h21.072v3.967h-21.072z" fill="#e6e6e6" opacity=".28"/><path d="m417.465 276.102h21.072v3.967h-21.072z" fill="#e6e6e6" opacity=".56"/><path d="m474.981 285.242h21.072v3.966h-21.072z" fill="#e6e6e6" opacity=".41"/><path d="m446.136 285.242h21.072v3.966h-21.072z" fill="#e6e6e6" opacity=".16"/><path d="m417.465 285.242h21.072v3.966h-21.072z" fill="#e6e6e6" opacity=".4"/><path d="m474.981 294.382h21.072v3.966h-21.072z" fill="#e6e6e6" opacity=".1"/><path d="m446.136 294.382h21.072v3.966h-21.072z" fill="#e6e6e6" opacity=".17"/><path d="m417.465 294.382h21.072v3.966h-21.072z" fill="#e6e6e6" opacity=".08"/><path d="m474.981 303.521h21.072v3.966h-21.072z" fill="#e6e6e6" opacity=".49"/><path d="m446.136 303.521h21.072v3.966h-21.072z" fill="#e6e6e6" opacity=".58"/><path d="m417.465 303.521h21.072v3.966h-21.072z" fill="#e6e6e6" opacity=".58"/><path d="m474.981 312.661h21.072v3.966h-21.072z" fill="#e6e6e6" opacity=".26"/><path d="m446.136 312.661h21.072v3.966h-21.072z" fill="#e6e6e6" opacity=".37"/><path d="m417.465 312.661h21.072v3.966h-21.072z" fill="#e6e6e6" opacity=".34"/><path d="m474.981 321.8h21.072v3.966h-21.072z" fill="#e6e6e6" opacity=".55"/><path d="m446.136 321.8h21.072v3.966h-21.072z" fill="#e6e6e6" opacity=".12"/><path d="m417.465 321.8h21.072v3.966h-21.072z" fill="#e6e6e6" opacity=".6"/><path d="m474.981 330.94h21.072v3.966h-21.072z" fill="#e6e6e6" opacity=".02"/><path d="m446.136 330.94h21.072v3.966h-21.072z" fill="#e6e6e6" opacity=".28"/><path d="m417.465 330.94h21.072v3.966h-21.072z" fill="#e6e6e6" opacity=".21"/><path d="m474.981 340.079h21.072v3.967h-21.072z" fill="#e6e6e6" opacity=".57"/><path d="m446.136 340.079h21.072v3.967h-21.072z" fill="#e6e6e6" opacity=".38"/><path d="m417.465 340.079h21.072v3.967h-21.072z" fill="#e6e6e6" opacity=".25"/><path d="m474.981 349.219h21.072v3.966h-21.072z" fill="#e6e6e6" opacity=".15"/><path d="m446.136 349.219h21.072v3.966h-21.072z" fill="#e6e6e6" opacity=".47"/><path d="m417.465 349.219h21.072v3.966h-21.072z" fill="#e6e6e6" opacity=".3"/><path d="m474.981 358.358h21.072v3.967h-21.072z" fill="#e6e6e6" opacity=".4"/><path d="m446.136 358.358h21.072v3.967h-21.072z" fill="#e6e6e6" opacity=".39"/><path d="m417.465 358.358h21.072v3.967h-21.072z" fill="#e6e6e6" opacity=".24"/><path d="m474.981 367.498h21.072v3.966h-21.072z" fill="#e6e6e6" opacity=".46"/><path d="m446.136 367.498h21.072v3.966h-21.072z" fill="#e6e6e6" opacity=".22"/><path d="m417.465 367.498h21.072v3.966h-21.072z" fill="#e6e6e6" opacity=".11"/><path d="m446.136 376.638h21.072v3.966h-21.072z" fill="#e6e6e6" opacity=".11"/><path d="m417.465 376.638h21.072v3.966h-21.072z" fill="#e6e6e6" opacity=".02"/><path d="m474.981 385.777h21.072v3.967h-21.072z" fill="#e6e6e6" opacity=".27"/><path d="m446.136 385.777h21.072v3.967h-21.072z" fill="#e6e6e6" opacity=".21"/><path d="m417.465 385.777h21.072v3.967h-21.072z" fill="#e6e6e6" opacity=".49"/><path d="m474.981 394.917h21.072v3.966h-21.072z" fill="#e6e6e6" opacity=".6"/><path d="m446.136 394.917h21.072v3.966h-21.072z" fill="#e6e6e6" opacity=".31"/><path d="m417.465 394.917h21.072v3.966h-21.072z" fill="#e6e6e6" opacity=".22"/><path d="m474.981 404.056h21.072v3.967h-21.072z" fill="#e6e6e6" opacity=".54"/><path d="m446.136 404.056h21.072v3.967h-21.072z" fill="#e6e6e6" opacity=".6"/><path d="m417.465 404.056h21.072v3.967h-21.072z" fill="#e6e6e6" opacity=".08"/><path d="m446.136 413.196h21.072v3.966h-21.072z" fill="#e6e6e6" opacity=".55"/><path d="m417.465 413.196h21.072v3.966h-21.072z" fill="#e6e6e6"/><path d="m473.599 239.544h1.382v177.618h-1.382z" fill="#e6e6e6" opacity=".6"/><path d="m438.537 239.544h1.382v177.618h-1.382z" fill="#e6e6e6" opacity=".6"/><path d="m369.621 229.542h43.526v221.247h-43.526z" fill="#4d4d4d"/><path d="m376.012 239.544h32.817v3.967h-32.817z" fill="#e6e6e6" opacity=".69"/><path d="m376.012 248.684h32.817v3.966h-32.817z" fill="#e6e6e6" opacity=".79"/><path d="m376.012 257.823h32.817v3.967h-32.817z" fill="#e6e6e6" opacity=".19"/><path d="m376.012 266.963h32.817v3.966h-32.817z" fill="#e6e6e6" opacity=".88"/><path d="m376.012 276.102h32.817v3.967h-32.817z" fill="#e6e6e6" opacity=".5"/><path d="m376.012 285.242h32.817v3.966h-32.817z" fill="#e6e6e6" opacity=".25"/><path d="m376.012 294.382h32.817v3.966h-32.817z" fill="#e6e6e6" opacity=".91"/><path d="m376.012 303.521h32.817v3.966h-32.817z" fill="#e6e6e6" opacity=".02"/><path d="m376.012 312.661h32.817v3.966h-32.817z" fill="#e6e6e6" opacity=".53"/><path d="m376.012 321.8h32.817v3.966h-32.817z" fill="#e6e6e6" opacity=".65"/><path d="m376.012 330.94h32.817v3.966h-32.817z" fill="#e6e6e6"/><path d="m376.012 340.079h32.817v3.967h-32.817z" fill="#e6e6e6" opacity=".8"/><path d="m376.012 349.219h32.817v3.966h-32.817z" fill="#e6e6e6" opacity=".82"/><path d="m376.012 358.358h32.817v3.967h-32.817z" fill="#e6e6e6" opacity=".75"/><path d="m376.012 367.498h32.817v3.966h-32.817z" fill="#e6e6e6" opacity=".31"/><path d="m376.012 376.638h32.817v3.966h-32.817z" fill="#e6e6e6" opacity=".22"/><path d="m376.012 385.777h32.817v3.967h-32.817z" fill="#e6e6e6" opacity=".43"/><path d="m376.012 394.917h32.817v3.966h-32.817z" fill="#e6e6e6" opacity=".68"/><path d="m376.012 404.056h32.817v3.967h-32.817z" fill="#e6e6e6" opacity=".38"/><path d="m376.012 413.196h32.817v3.966h-32.817z" fill="#e6e6e6" opacity=".84"/><path d="m484.999 217.816v11.726h-56.48v-11.726zm-12.609 7.933h5.872v-3.967h-5.872zm-9.154 0h5.7v-3.967h-5.7zm-9.327 0h5.7v-3.967h-5.7zm-9.327 0h5.872v-3.967h-5.872zm-9.327 0h5.873v-3.967h-5.873z" fill="#333"/><path d="m418.156 221.782h1.554v3.967h-1.554z" fill="#333"/><path d="m428.519 217.816v11.726h-26.599v-11.726zm-10.363 7.933h5.7v-3.967h-5.7zm-12.263 0h5.699v-3.967h-5.699z" fill="#4d4d4d"/><path d="m406.065 221.782h1.555v3.967h-1.555z" fill="#333"/><path d="m401.575 465.79h117.449l-117.449-86.567z" fill="#333"/><path d="m576.713 182.637h9.5v36.041h-9.5z" fill="#4d4d4d"/><path d="m586.04 182.637h9.672v36.041h-9.672z" fill="#333"/><path d="m566.868 182.637h9.672v36.041h-9.672z" fill="#666"/><path d="m538.887 243.338h26.945v205.554h-26.945z" fill="#666"/><path d="m597.439 243.338h23.49v205.554h-23.49z" fill="#333"/><path d="m565.832 243.338h31.78v205.554h-31.78z" fill="#4d4d4d"/><path d="m614.193 249.373h3.455v196.759h-3.455z" fill="#e6e6e6" opacity=".6"/><path d="m607.457 249.373h3.455v196.759h-3.455z" fill="#e6e6e6" opacity=".6"/><path d="m600.721 249.373h3.454v196.759h-3.454z" fill="#e6e6e6" opacity=".6"/><path d="m560.477 249.373h3.455v196.759h-3.455z" fill="#e6e6e6"/><path d="m553.741 249.373h3.455v196.759h-3.455z" fill="#e6e6e6"/><path d="m540.615 249.373h3.454v196.759h-3.454z" fill="#e6e6e6"/><path d="m547.005 249.373h3.455v196.759h-3.455z" fill="#e6e6e6"/><path d="m593.64 446.132h-23.836v-196.759h23.836zm-3.8-193.31h-16.236v189.862h16.236z" fill="#e6e6e6" opacity=".8"/><path d="m586.731 439.407h-10.191v-183.481h10.191zm-3.455-179.17h-1.209-.691-1.381v174.859h1.381.691 1.209z" fill="#e6e6e6" opacity=".8"/><path d="m581.376 260.237h.691v174.859h-.691z" fill="#e6e6e6" opacity=".8"/><path d="m569.459 207.297h23.835v36.041h-23.835z" fill="#4d4d4d"/><path d="m569.459 207.297h23.835v36.041h-23.835z" fill="#4d4d4d"/><path d="m545.623 207.297h23.836v36.041h-23.836z" fill="#666"/><path d="m593.294 207.297h23.836v36.041h-23.836z" fill="#333"/><path d="m567.041 182.637h28.671l-9.499 6.553h-9.673z" fill="#808080"/><path d="m54.5796 169.359h13.8175v40.525h-13.8175z" fill="#4d4d4d"/><path d="m68.5701 169.359h13.8176v40.525h-13.8176z" fill="#333"/><path d="m40.7618 169.359h13.8178v40.525h-13.8178z" fill="#666"/><path d="m0 237.82h39.0347v231.593h-39.0347z" fill="#666"/><path d="m84.9785 237.82h33.8535v231.593h-33.8535z" fill="#333"/><path d="m39.0348 237.82h45.9436v231.593h-45.9436z" fill="#4d4d4d"/><path d="m109.159 244.717h5.009v221.591h-5.009z" fill="#e6e6e6" opacity=".4"/><path d="m99.3141 244.717h5.0089v221.591h-5.0089z" fill="#e6e6e6" opacity=".4"/><path d="m89.469 244.717h5.009v221.591h-5.009z" fill="#e6e6e6" opacity=".4"/><path d="m31.2623 244.717h5.0089v221.591h-5.0089z" fill="#e6e6e6"/><path d="m21.4172 244.717h5.0091v221.591h-5.0091z" fill="#e6e6e6"/><path d="m2.59082 244.717h5.00891v221.591h-5.00891z" fill="#e6e6e6"/><path d="m11.7449 244.717h5.009v221.591h-5.009z" fill="#e6e6e6"/><path d="m79.106 466.308h-34.5442v-221.591h34.5442zm-5.3544-217.797h-23.4901v214.003h23.4901z" fill="#e6e6e6"/><path d="m69.4336 458.893h-14.854v-206.76h14.854zm-5.1816-201.932h-1.9-.8636-1.8999v197.104h1.8999.8636 1.9z" fill="#e6e6e6"/><path d="m61.4884 256.961h.8635v197.104h-.8635z" fill="#e6e6e6"/><path d="m44.2163 197.295h34.5442v40.525h-34.5442z" fill="#4d4d4d"/><path d="m44.2163 197.295h34.5442v40.525h-34.5442z" fill="#4d4d4d"/><path d="m9.67236 197.295h34.54394v40.525h-34.54394z" fill="#666"/><path d="m78.5876 197.295h34.5444v40.525h-34.5444z" fill="#333"/><path d="m40.5894 169.359h41.7983l-13.9904 7.415h-13.8176z" fill="#808080"/><path d="m154.239 269.894h94.478v31.384h-94.478z" fill="#e6e6e6"/><path d="m211.582 269.894h37.135v31.384h-37.135z" fill="#b3b3b3"/><path d="m211.582 301.451h73.407v152.441h-73.407z" fill="#333"/><path d="m96.8961 301.451h114.6859v152.441h-114.6859z" fill="#4d4d4d"/><path d="m220.564 285.931h56.479v15.52h-56.479z" fill="#333"/><path d="m113.995 285.931h80.661v15.52h-80.661z" fill="#4d4d4d"/><path d="m179.284 257.995h32.298v11.898h-32.298z" fill="#e6e6e6"/><path d="m195.519 245.924h16.063v11.899h-16.063z" fill="#4d4d4d"/><path d="m211.755 245.924h16.063v11.899h-16.063z" fill="#333"/><path d="m211.582 257.995h24.699v11.898h-24.699z" fill="#b3b3b3"/><path d="m212.619 245.924-1.037-27.591-.863 27.591z" fill="#333"/><g fill="#fff"><path d="m261.844 307.659h6.045v6.035h-6.045z" opacity=".12"/><path d="m253.553 307.659h6.046v6.035h-6.046z" opacity=".25"/><path d="m245.263 307.659h6.045v6.035h-6.045z" opacity=".36"/><path d="m236.972 307.659h6.046v6.035h-6.046z" opacity=".12"/><path d="m228.682 307.659h6.045v6.035h-6.045z" opacity=".14"/><path d="m261.844 315.591h6.045v6.036h-6.045z" opacity=".28"/><path d="m253.553 315.591h6.046v6.036h-6.046z" opacity=".4"/><path d="m245.263 315.591h6.045v6.036h-6.045z" opacity=".16"/><path d="m228.682 315.591h6.045v6.036h-6.045z" opacity=".17"/><path d="m261.844 323.524h6.045v6.035h-6.045z" opacity=".27"/><path d="m253.553 323.524h6.046v6.035h-6.046z" opacity=".45"/><path d="m245.263 323.524h6.045v6.035h-6.045z" opacity=".45"/><path d="m236.972 323.524h6.046v6.035h-6.046z" opacity=".48"/><path d="m228.682 323.524h6.045v6.035h-6.045z" opacity=".25"/><path d="m261.844 331.456h6.045v6.036h-6.045z" opacity=".28"/><path d="m253.553 331.456h6.046v6.036h-6.046z" opacity=".13"/><path d="m245.263 331.456h6.045v6.036h-6.045z" opacity=".07"/><path d="m236.972 331.456h6.046v6.036h-6.046z" opacity=".39"/><path d="m228.682 331.456h6.045v6.036h-6.045z" opacity=".47"/><path d="m261.844 339.388h6.045v6.036h-6.045z" opacity=".28"/><path d="m253.553 339.388h6.046v6.036h-6.046z" opacity=".2"/><path d="m245.263 339.388h6.045v6.036h-6.045z" opacity=".04"/><path d="m236.972 339.388h6.046v6.036h-6.046z" opacity=".43"/><path d="m228.682 339.388h6.045v6.036h-6.045z" opacity=".48"/><path d="m261.844 347.321h6.045v6.036h-6.045z" opacity=".28"/><path d="m253.553 347.321h6.046v6.036h-6.046z" opacity=".19"/><path d="m245.263 347.321h6.045v6.036h-6.045z" opacity=".01"/><path d="m236.972 347.321h6.046v6.036h-6.046z" opacity=".27"/><path d="m228.682 347.321h6.045v6.036h-6.045z" opacity=".24"/><path d="m261.844 355.426h6.045v6.035h-6.045z" opacity=".07"/><path d="m253.553 355.426h6.046v6.035h-6.046z" opacity=".25"/><path d="m245.263 355.426h6.045v6.035h-6.045z" opacity=".26"/><path d="m236.972 355.426h6.046v6.035h-6.046z" opacity=".39"/><path d="m228.682 355.426h6.045v6.035h-6.045z" opacity=".22"/><path d="m261.844 363.358h6.045v6.036h-6.045z" opacity=".15"/><path d="m253.553 363.358h6.046v6.036h-6.046z" opacity=".23"/><path d="m245.263 363.358h6.045v6.036h-6.045z" opacity=".05"/><path d="m236.972 363.358h6.046v6.036h-6.046z" opacity=".2"/><path d="m228.682 363.358h6.045v6.036h-6.045z" opacity=".31"/><path d="m261.844 371.291h6.045v6.035h-6.045z" opacity=".15"/><path d="m253.553 371.291h6.046v6.035h-6.046z" opacity=".33"/><path d="m245.263 371.291h6.045v6.035h-6.045z" opacity=".46"/><path d="m236.972 371.291h6.046v6.035h-6.046z" opacity=".25"/><path d="m228.682 371.291h6.045v6.035h-6.045z" opacity=".43"/><path d="m261.844 379.223h6.045v6.036h-6.045z" opacity=".4"/><path d="m253.553 379.223h6.046v6.036h-6.046z" opacity=".39"/><path d="m245.263 379.223h6.045v6.036h-6.045z" opacity=".01"/><path d="m236.972 379.223h6.046v6.036h-6.046z" opacity=".12"/><path d="m228.682 379.223h6.045v6.036h-6.045z" opacity=".07"/><path d="m261.844 387.156h6.045v6.035h-6.045z" opacity=".07"/><path d="m253.553 387.156h6.046v6.035h-6.046z" opacity=".02"/><path d="m245.263 387.156h6.045v6.035h-6.045z" opacity=".12"/><path d="m236.972 387.156h6.046v6.035h-6.046z" opacity=".23"/><path d="m228.682 387.156h6.045v6.035h-6.045z" opacity=".26"/><path d="m261.844 395.088h6.045v6.036h-6.045z" opacity=".27"/><path d="m253.553 395.088h6.046v6.036h-6.046z" opacity=".38"/><path d="m245.263 395.088h6.045v6.036h-6.045z" opacity=".05"/><path d="m236.972 395.088h6.046v6.036h-6.046z" opacity=".45"/><path d="m228.682 395.088h6.045v6.036h-6.045z" opacity=".15"/><path d="m261.844 403.021h6.045v6.035h-6.045z" opacity=".06"/><path d="m253.553 403.021h6.046v6.035h-6.046z" opacity=".47"/><path d="m245.263 403.021h6.045v6.035h-6.045z" opacity=".15"/><path d="m236.972 403.021h6.046v6.035h-6.046z" opacity=".44"/><path d="m228.682 403.021h6.045v6.035h-6.045z" opacity=".14"/><path d="m261.844 410.953h6.045v6.036h-6.045z" opacity=".15"/><path d="m253.553 410.953h6.046v6.036h-6.046z" opacity=".43"/><path d="m245.263 410.953h6.045v6.036h-6.045z" opacity=".07"/><path d="m236.972 410.953h6.046v6.036h-6.046z" opacity=".47"/><path d="m228.682 410.953h6.045v6.036h-6.045z" opacity=".11"/><path d="m261.844 418.885h6.045v6.036h-6.045z" opacity=".07"/><path d="m253.553 418.885h6.046v6.036h-6.046z" opacity=".34"/><path d="m245.263 418.885h6.045v6.036h-6.045z" opacity=".5"/><path d="m236.972 418.885h6.046v6.036h-6.046z" opacity=".36"/><path d="m228.682 418.885h6.045v6.036h-6.045z" opacity=".34"/><path d="m261.844 426.818h6.045v6.036h-6.045z" opacity=".47"/><path d="m253.553 426.818h6.046v6.036h-6.046z" opacity=".41"/><path d="m245.263 426.818h6.045v6.036h-6.045z" opacity=".3"/><path d="m236.972 426.818h6.046v6.036h-6.046z" opacity=".33"/><path d="m228.682 426.818h6.045v6.036h-6.045z" opacity=".12"/><path d="m261.844 434.75h6.045v6.036h-6.045z" opacity=".24"/><path d="m253.553 434.75h6.046v6.036h-6.046z" opacity=".29"/><path d="m236.972 434.75h6.046v6.036h-6.046z" opacity=".27"/><path d="m228.682 434.75h6.045v6.036h-6.045z" opacity=".04"/><path d="m261.844 442.683h6.045v6.035h-6.045z" opacity=".11"/><path d="m253.553 442.683h6.046v6.035h-6.046z" opacity=".05"/><path d="m245.263 442.683h6.045v6.035h-6.045z" opacity=".04"/><path d="m236.972 442.683h6.046v6.035h-6.046z" opacity=".02"/><path d="m191.547 307.659h6.045v6.035h-6.045z" opacity=".3"/><path d="m183.602 307.659h6.045v6.035h-6.045z" opacity=".72"/><path d="m175.484 307.659h6.045v6.035h-6.045z" opacity=".7"/><path d="m167.366 307.659h6.045v6.035h-6.045z" opacity=".52"/><path d="m159.248 307.659h6.046v6.035h-6.046z" opacity=".2"/><path d="m151.303 307.659h6.045v6.035h-6.045z" opacity=".32"/><path d="m143.185 307.659h6.045v6.035h-6.045z" opacity=".13"/><path d="m135.067 307.659h6.046v6.035h-6.046z" opacity=".38"/><path d="m127.122 307.659h6.045v6.035h-6.045z" opacity=".61"/><path d="m119.004 307.659h6.046v6.035h-6.046z"/><path d="m110.887 307.659h6.045v6.035h-6.045z" opacity=".91"/><path d="m191.547 315.591h6.045v6.036h-6.045z" opacity=".66"/><path d="m183.602 315.591h6.045v6.036h-6.045z" opacity=".31"/><path d="m175.484 315.591h6.045v6.036h-6.045z" opacity=".95"/><path d="m167.366 315.591h6.045v6.036h-6.045z" opacity=".7"/><path d="m159.248 315.591h6.046v6.036h-6.046z" opacity=".12"/><path d="m151.303 315.591h6.045v6.036h-6.045z" opacity=".24"/><path d="m143.185 315.591h6.045v6.036h-6.045z" opacity=".66"/><path d="m135.067 315.591h6.046v6.036h-6.046z" opacity=".71"/><path d="m127.122 315.591h6.045v6.036h-6.045z" opacity=".42"/><path d="m119.004 315.591h6.046v6.036h-6.046z" opacity=".09"/><path d="m110.887 315.591h6.045v6.036h-6.045z" opacity=".32"/><path d="m191.547 323.524h6.045v6.035h-6.045z" opacity=".65"/><path d="m183.602 323.524h6.045v6.035h-6.045z"/><path d="m175.484 323.524h6.045v6.035h-6.045z"/><path d="m167.366 323.524h6.045v6.035h-6.045z" opacity=".71"/><path d="m159.248 323.524h6.046v6.035h-6.046z" opacity=".2"/><path d="m151.303 323.524h6.045v6.035h-6.045z" opacity=".19"/><path d="m143.185 323.524h6.045v6.035h-6.045z" opacity=".62"/><path d="m135.067 323.524h6.046v6.035h-6.046z" opacity=".93"/><path d="m127.122 323.524h6.045v6.035h-6.045z" opacity=".56"/><path d="m119.004 323.524h6.046v6.035h-6.046z" opacity=".57"/><path d="m110.887 323.524h6.045v6.035h-6.045z" opacity=".52"/><path d="m191.547 331.456h6.045v6.036h-6.045z" opacity=".74"/><path d="m183.602 331.456h6.045v6.036h-6.045z" opacity=".56"/><path d="m175.484 331.456h6.045v6.036h-6.045z" opacity=".78"/><path d="m167.366 331.456h6.045v6.036h-6.045z" opacity=".41"/><path d="m159.248 331.456h6.046v6.036h-6.046z" opacity=".14"/><path d="m151.303 331.456h6.045v6.036h-6.045z" opacity=".28"/><path d="m143.185 331.456h6.045v6.036h-6.045z" opacity=".36"/><path d="m135.067 331.456h6.046v6.036h-6.046z" opacity=".14"/><path d="m127.122 331.456h6.045v6.036h-6.045z" opacity=".5"/><path d="m119.004 331.456h6.046v6.036h-6.046z" opacity=".98"/><path d="m110.887 331.456h6.045v6.036h-6.045z" opacity=".59"/><path d="m191.547 339.388h6.045v6.036h-6.045z" opacity=".07"/><path d="m183.602 339.388h6.045v6.036h-6.045z" opacity=".1"/><path d="m175.484 339.388h6.045v6.036h-6.045z" opacity=".88"/><path d="m167.366 339.388h6.045v6.036h-6.045z" opacity=".68"/><path d="m159.248 339.388h6.046v6.036h-6.046z" opacity=".81"/><path d="m151.303 339.388h6.045v6.036h-6.045z" opacity=".62"/><path d="m143.185 339.388h6.045v6.036h-6.045z" opacity=".97"/><path d="m135.067 339.388h6.046v6.036h-6.046z" opacity=".81"/><path d="m127.122 339.388h6.045v6.036h-6.045z" opacity=".79"/><path d="m119.004 339.388h6.046v6.036h-6.046z" opacity=".03"/><path d="m110.887 339.388h6.045v6.036h-6.045z" opacity=".95"/><path d="m191.547 347.321h6.045v6.036h-6.045z" opacity=".62"/><path d="m183.602 347.321h6.045v6.036h-6.045z" opacity=".22"/><path d="m175.484 347.321h6.045v6.036h-6.045z" opacity=".42"/><path d="m167.366 347.321h6.045v6.036h-6.045z" opacity=".56"/><path d="m159.248 347.321h6.046v6.036h-6.046z" opacity=".03"/><path d="m151.303 347.321h6.045v6.036h-6.045z" opacity=".64"/><path d="m143.185 347.321h6.045v6.036h-6.045z" opacity=".82"/><path d="m135.067 347.321h6.046v6.036h-6.046z" opacity=".52"/><path d="m127.122 347.321h6.045v6.036h-6.045z" opacity=".46"/><path d="m119.004 347.321h6.046v6.036h-6.046z" opacity=".27"/><path d="m110.887 347.321h6.045v6.036h-6.045z" opacity=".46"/><path d="m191.547 355.426h6.045v6.035h-6.045z" opacity=".66"/><path d="m183.602 355.426h6.045v6.035h-6.045z" opacity=".7"/><path d="m175.484 355.426h6.045v6.035h-6.045z" opacity=".94"/><path d="m167.366 355.426h6.045v6.035h-6.045z" opacity=".5"/><path d="m159.248 355.426h6.046v6.035h-6.046z" opacity=".12"/><path d="m151.303 355.426h6.045v6.035h-6.045z" opacity=".36"/><path d="m143.185 355.426h6.045v6.035h-6.045z" opacity=".51"/><path d="m135.067 355.426h6.046v6.035h-6.046z" opacity=".37"/><path d="m127.122 355.426h6.045v6.035h-6.045z" opacity=".66"/><path d="m119.004 355.426h6.046v6.035h-6.046z" opacity=".42"/><path d="m110.887 355.426h6.045v6.035h-6.045z" opacity=".5"/><path d="m191.547 363.358h6.045v6.036h-6.045z" opacity=".52"/><path d="m183.602 363.358h6.045v6.036h-6.045z" opacity=".61"/><path d="m175.484 363.358h6.045v6.036h-6.045z" opacity=".84"/><path d="m167.366 363.358h6.045v6.036h-6.045z" opacity=".89"/><path d="m159.248 363.358h6.046v6.036h-6.046z" opacity=".33"/><path d="m151.303 363.358h6.045v6.036h-6.045z" opacity=".25"/><path d="m143.185 363.358h6.045v6.036h-6.045z" opacity=".95"/><path d="m135.067 363.358h6.046v6.036h-6.046z" opacity=".09"/><path d="m127.122 363.358h6.045v6.036h-6.045z" opacity=".44"/><path d="m119.004 363.358h6.046v6.036h-6.046z" opacity=".51"/><path d="m110.887 363.358h6.045v6.036h-6.045z" opacity=".97"/><path d="m191.547 371.291h6.045v6.035h-6.045z" opacity=".26"/><path d="m183.602 371.291h6.045v6.035h-6.045z" opacity=".92"/><path d="m175.484 371.291h6.045v6.035h-6.045z" opacity=".33"/><path d="m167.366 371.291h6.045v6.035h-6.045z" opacity=".23"/><path d="m159.248 371.291h6.046v6.035h-6.046z" opacity=".42"/><path d="m151.303 371.291h6.045v6.035h-6.045z" opacity=".57"/><path d="m143.185 371.291h6.045v6.035h-6.045z" opacity=".73"/><path d="m135.067 371.291h6.046v6.035h-6.046z" opacity=".87"/><path d="m127.122 371.291h6.045v6.035h-6.045z" opacity=".22"/><path d="m119.004 371.291h6.046v6.035h-6.046z" opacity=".89"/><path d="m110.887 371.291h6.045v6.035h-6.045z" opacity=".73"/><path d="m191.547 379.223h6.045v6.036h-6.045z" opacity=".35"/><path d="m183.602 379.223h6.045v6.036h-6.045z" opacity=".81"/><path d="m175.484 379.223h6.045v6.036h-6.045z" opacity=".56"/><path d="m167.366 379.223h6.045v6.036h-6.045z" opacity=".81"/><path d="m159.248 379.223h6.046v6.036h-6.046z" opacity=".87"/><path d="m151.303 379.223h6.045v6.036h-6.045z" opacity=".39"/><path d="m143.185 379.223h6.045v6.036h-6.045z" opacity=".31"/><path d="m135.067 379.223h6.046v6.036h-6.046z" opacity=".98"/><path d="m127.122 379.223h6.045v6.036h-6.045z" opacity=".17"/><path d="m119.004 379.223h6.046v6.036h-6.046z" opacity=".06"/><path d="m110.887 379.223h6.045v6.036h-6.045z" opacity=".57"/><path d="m191.547 387.156h6.045v6.035h-6.045z" opacity=".67"/><path d="m183.602 387.156h6.045v6.035h-6.045z" opacity=".83"/><path d="m175.484 387.156h6.045v6.035h-6.045z" opacity=".99"/><path d="m167.366 387.156h6.045v6.035h-6.045z" opacity=".62"/><path d="m159.248 387.156h6.046v6.035h-6.046z" opacity=".87"/><path d="m151.303 387.156h6.045v6.035h-6.045z" opacity=".14"/><path d="m143.185 387.156h6.045v6.035h-6.045z" opacity=".12"/><path d="m135.067 387.156h6.046v6.035h-6.046z" opacity=".11"/><path d="m127.122 387.156h6.045v6.035h-6.045z" opacity=".39"/><path d="m119.004 387.156h6.046v6.035h-6.046z" opacity=".58"/><path d="m110.887 387.156h6.045v6.035h-6.045z" opacity=".54"/><path d="m191.547 395.088h6.045v6.036h-6.045z" opacity=".99"/><path d="m183.602 395.088h6.045v6.036h-6.045z" opacity=".28"/><path d="m175.484 395.088h6.045v6.036h-6.045z" opacity=".78"/><path d="m167.366 395.088h6.045v6.036h-6.045z" opacity=".65"/><path d="m159.248 395.088h6.046v6.036h-6.046z" opacity=".32"/><path d="m151.303 395.088h6.045v6.036h-6.045z" opacity=".55"/><path d="m143.185 395.088h6.045v6.036h-6.045z" opacity=".4"/><path d="m135.067 395.088h6.046v6.036h-6.046z" opacity=".22"/><path d="m127.122 395.088h6.045v6.036h-6.045z" opacity=".87"/><path d="m119.004 395.088h6.046v6.036h-6.046z" opacity=".02"/><path d="m110.887 395.088h6.045v6.036h-6.045z" opacity=".39"/><path d="m191.547 403.021h6.045v6.035h-6.045z" opacity=".89"/><path d="m183.602 403.021h6.045v6.035h-6.045z" opacity=".97"/><path d="m175.484 403.021h6.045v6.035h-6.045z" opacity=".79"/><path d="m167.366 403.021h6.045v6.035h-6.045z" opacity=".41"/><path d="m159.248 403.021h6.046v6.035h-6.046z" opacity=".13"/><path d="m151.303 403.021h6.045v6.035h-6.045z" opacity=".9"/><path d="m143.185 403.021h6.045v6.035h-6.045z" opacity=".98"/><path d="m135.067 403.021h6.046v6.035h-6.046z" opacity=".67"/><path d="m127.122 403.021h6.045v6.035h-6.045z" opacity=".65"/><path d="m119.004 403.021h6.046v6.035h-6.046z" opacity=".89"/><path d="m110.887 403.021h6.045v6.035h-6.045z" opacity=".98"/><path d="m191.547 410.953h6.045v6.036h-6.045z" opacity=".29"/><path d="m183.602 410.953h6.045v6.036h-6.045z" opacity=".74"/><path d="m175.484 410.953h6.045v6.036h-6.045z" opacity=".64"/><path d="m167.366 410.953h6.045v6.036h-6.045z" opacity=".65"/><path d="m159.248 410.953h6.046v6.036h-6.046z" opacity=".07"/><path d="m151.303 410.953h6.045v6.036h-6.045z" opacity=".16"/><path d="m143.185 410.953h6.045v6.036h-6.045z" opacity=".84"/><path d="m135.067 410.953h6.046v6.036h-6.046z" opacity=".88"/><path d="m127.122 410.953h6.045v6.036h-6.045z" opacity=".57"/><path d="m119.004 410.953h6.046v6.036h-6.046z" opacity=".31"/><path d="m110.887 410.953h6.045v6.036h-6.045z" opacity=".03"/><path d="m191.547 418.885h6.045v6.036h-6.045z" opacity=".3"/><path d="m183.602 418.885h6.045v6.036h-6.045z" opacity=".59"/><path d="m175.484 418.885h6.045v6.036h-6.045z" opacity=".93"/><path d="m167.366 418.885h6.045v6.036h-6.045z" opacity=".06"/><path d="m159.248 418.885h6.046v6.036h-6.046z" opacity=".74"/><path d="m151.303 418.885h6.045v6.036h-6.045z" opacity=".22"/><path d="m143.185 418.885h6.045v6.036h-6.045z" opacity=".51"/><path d="m135.067 418.885h6.046v6.036h-6.046z" opacity=".7"/><path d="m127.122 418.885h6.045v6.036h-6.045z" opacity=".47"/><path d="m119.004 418.885h6.046v6.036h-6.046z" opacity=".08"/><path d="m110.887 418.885h6.045v6.036h-6.045z" opacity=".93"/><path d="m191.547 426.818h6.045v6.036h-6.045z" opacity=".81"/><path d="m183.602 426.818h6.045v6.036h-6.045z" opacity=".9"/><path d="m175.484 426.818h6.045v6.036h-6.045z" opacity=".55"/><path d="m167.366 426.818h6.045v6.036h-6.045z" opacity=".14"/><path d="m159.248 426.818h6.046v6.036h-6.046z" opacity=".66"/><path d="m151.303 426.818h6.045v6.036h-6.045z" opacity=".92"/><path d="m143.185 426.818h6.045v6.036h-6.045z" opacity=".4"/><path d="m135.067 426.818h6.046v6.036h-6.046z" opacity=".6"/><path d="m127.122 426.818h6.045v6.036h-6.045z" opacity=".99"/><path d="m119.004 426.818h6.046v6.036h-6.046z" opacity=".68"/><path d="m110.887 426.818h6.045v6.036h-6.045z" opacity=".01"/><path d="m191.547 434.75h6.045v6.036h-6.045z" opacity=".82"/><path d="m183.602 434.75h6.045v6.036h-6.045z" opacity=".92"/><path d="m175.484 434.75h6.045v6.036h-6.045z" opacity=".29"/><path d="m167.366 434.75h6.045v6.036h-6.045z" opacity=".73"/><path d="m159.248 434.75h6.046v6.036h-6.046z" opacity=".42"/><path d="m151.303 434.75h6.045v6.036h-6.045z" opacity=".06"/><path d="m143.185 434.75h6.045v6.036h-6.045z" opacity=".7"/><path d="m135.067 434.75h6.046v6.036h-6.046z" opacity=".97"/><path d="m127.122 434.75h6.045v6.036h-6.045z" opacity=".51"/><path d="m119.004 434.75h6.046v6.036h-6.046z" opacity=".69"/><path d="m110.887 434.75h6.045v6.036h-6.045z" opacity=".49"/><path d="m191.547 442.683h6.045v6.035h-6.045z" opacity=".45"/><path d="m183.602 442.683h6.045v6.035h-6.045z" opacity=".46"/><path d="m175.484 442.683h6.045v6.035h-6.045z" opacity=".04"/><path d="m167.366 442.683h6.045v6.035h-6.045z" opacity=".56"/><path d="m159.248 442.683h6.046v6.035h-6.046z" opacity=".4"/><path d="m151.303 442.683h6.045v6.035h-6.045z" opacity=".59"/><path d="m143.185 442.683h6.045v6.035h-6.045z" opacity=".82"/><path d="m135.067 442.683h6.046v6.035h-6.046z" opacity=".99"/><path d="m127.122 442.683h6.045v6.035h-6.045z" opacity=".1"/><path d="m119.004 442.683h6.046v6.035h-6.046z" opacity=".87"/><path d="m110.887 442.683h6.045v6.035h-6.045z"/></g><path d="m293.625 268.859h56.997v178.308h-56.997z" fill="#333"/><path d="m324.714 259.892h25.908v10.002h-25.908z" fill="#333"/><path d="m335.596 254.029h15.026v5.863h-15.026z" fill="#333"/><path d="m317.633 281.448h9.327v9.312h-9.327z" fill="#fff" opacity=".25"/><path d="m317.633 304.383h9.327v9.312h-9.327z" fill="#fff" opacity=".15"/><path d="m317.633 350.08h9.327v9.312h-9.327z" fill="#fff" opacity=".19"/><path d="m317.633 372.843h9.327v9.312h-9.327z" fill="#fff" opacity=".17"/><path d="m317.633 395.606h9.327v9.312h-9.327z" fill="#fff" opacity=".22"/><path d="m317.633 418.541h9.327v9.312h-9.327z" fill="#fff"/><path d="m335.941 368.187h53.371v15.692h-53.371z" fill="#333"/><path d="m309.342 368.187h26.599v15.692h-26.599z" fill="#4d4d4d"/><path d="m389.312 368.187-16.582-7.932-36.789 7.932z" fill="#333"/><path d="m372.73 360.255-36.789 7.932h-26.599z" fill="#4d4d4d"/><path d="m323.505 379.223h78.07v71.392h-78.07z" fill="#333"/><path d="m297.597 379.223h25.908v71.392h-25.908z" fill="#4d4d4d"/><path d="m303.642 384.224h13.991v5.174h-13.991z" fill="#fff" opacity=".81"/><path d="m303.642 393.709h13.991v5.173h-13.991z" fill="#fff" opacity=".76"/><path d="m303.642 403.193h13.991v5.174h-13.991z" fill="#fff" opacity=".32"/><path d="m303.642 412.85h13.991v5.173h-13.991z" fill="#fff" opacity=".49"/><path d="m303.642 431.819h13.991v5.173h-13.991z" fill="#fff" opacity=".99"/><path d="m375.148 384.224h13.991v5.174h-13.991z" fill="#fff" opacity=".1"/><path d="m355.631 384.224h13.991v5.174h-13.991z" fill="#fff" opacity=".04"/><path d="m335.941 384.224h13.99v5.174h-13.99z" fill="#fff" opacity=".07"/><path d="m375.148 393.709h13.991v5.173h-13.991z" fill="#fff" opacity=".06"/><path d="m355.631 393.709h13.991v5.173h-13.991z" fill="#fff" opacity=".44"/><path d="m335.941 393.709h13.99v5.173h-13.99z" fill="#fff" opacity=".24"/><path d="m375.148 403.193h13.991v5.174h-13.991z" fill="#fff" opacity=".55"/><path d="m355.631 403.193h13.991v5.174h-13.991z" fill="#fff" opacity=".02"/><path d="m335.941 403.193h13.99v5.174h-13.99z" fill="#fff" opacity=".14"/><path d="m375.148 412.85h13.991v5.173h-13.991z" fill="#fff" opacity=".43"/><path d="m355.631 412.85h13.991v5.173h-13.991z" fill="#fff" opacity=".41"/><path d="m335.941 412.85h13.99v5.173h-13.99z" fill="#fff" opacity=".46"/><path d="m375.148 422.335h13.991v5.173h-13.991z" fill="#fff" opacity=".45"/><path d="m355.631 422.335h13.991v5.173h-13.991z" fill="#fff" opacity=".33"/><path d="m335.941 422.335h13.99v5.173h-13.99z" fill="#fff" opacity=".05"/><path d="m375.148 431.819h13.991v5.174h-13.991z" fill="#fff" opacity=".27"/><path d="m355.631 431.819h13.991v5.174h-13.991z" fill="#fff" opacity=".15"/><path d="m335.941 431.819h13.99v5.174h-13.99z" fill="#fff" opacity=".7"/><path d="m703.317 307.832h48.362v148.819h-48.362z" fill="#333"/><path d="m648.219 307.832h54.925v148.819h-54.925z" fill="#4d4d4d"/><path d="m703.317 320.42h48.362v2.587h-48.362z" fill="#4d4d4d"/><path d="m648.219 320.42h54.925v2.587h-54.925z" fill="#333"/><path d="m728.361 325.939h5.182v5.173h-5.182z" fill="#fff" opacity=".32"/><path d="m721.28 325.939h5.182v5.173h-5.182z" fill="#fff" opacity=".25"/><path d="m707.117 325.939h5.181v5.173h-5.181z" fill="#fff" opacity=".12"/><path d="m728.361 333.009h5.182v5.173h-5.182z" fill="#fff" opacity=".22"/><path d="m721.28 333.009h5.182v5.173h-5.182z" fill="#fff" opacity=".47"/><path d="m714.198 333.009h5.182v5.173h-5.182z" fill="#fff" opacity=".22"/><path d="m707.117 333.009h5.181v5.173h-5.181z" fill="#fff" opacity=".32"/><path d="m728.361 340.079h5.182v5.173h-5.182z" fill="#fff" opacity=".18"/><path d="m721.28 340.079h5.182v5.173h-5.182z" fill="#fff" opacity=".28"/><path d="m707.117 340.079h5.181v5.173h-5.181z" fill="#fff" opacity=".2"/><path d="m728.361 347.149h5.182v5.174h-5.182z" fill="#fff" opacity=".33"/><path d="m721.28 347.149h5.182v5.174h-5.182z" fill="#fff" opacity=".05"/><path d="m714.198 347.149h5.182v5.174h-5.182z" fill="#fff" opacity=".08"/><path d="m721.28 354.219h5.182v5.174h-5.182z" fill="#fff" opacity=".08"/><path d="m714.198 354.219h5.182v5.174h-5.182z" fill="#fff" opacity=".02"/><path d="m728.361 361.29h5.182v5.173h-5.182z" fill="#fff" opacity=".05"/><path d="m721.28 361.29h5.182v5.173h-5.182z" fill="#fff" opacity=".2"/><path d="m714.198 361.29h5.182v5.173h-5.182z" fill="#fff" opacity=".23"/><path d="m728.361 368.36h5.182v5.173h-5.182z" fill="#fff" opacity=".14"/><path d="m714.198 368.36h5.182v5.173h-5.182z" fill="#fff" opacity=".24"/><path d="m728.361 375.43h5.182v5.173h-5.182z" fill="#fff" opacity=".23"/><path d="m721.28 375.43h5.182v5.173h-5.182z" fill="#fff" opacity=".02"/><path d="m714.198 375.43h5.182v5.173h-5.182z" fill="#fff" opacity=".04"/><path d="m707.117 375.43h5.181v5.173h-5.181z" fill="#fff" opacity=".3"/><path d="m707.117 382.328h5.181v5.173h-5.181z" fill="#fff" opacity=".4"/><path d="m728.361 389.398h5.182v5.174h-5.182z" fill="#fff" opacity=".12"/><path d="m714.198 389.398h5.182v5.174h-5.182z" fill="#fff" opacity=".19"/><path d="m707.117 389.398h5.181v5.174h-5.181z" fill="#fff" opacity=".43"/><path d="m721.28 396.468h5.182v5.174h-5.182z" fill="#fff" opacity=".42"/><path d="m707.117 396.468h5.181v5.174h-5.181z" fill="#fff" opacity=".31"/><path d="m721.28 403.539h5.182v5.173h-5.182z" fill="#fff" opacity=".31"/><path d="m707.117 403.539h5.181v5.173h-5.181z" fill="#fff" opacity=".33"/><path d="m721.28 410.609h5.182v5.173h-5.182z" fill="#fff" opacity=".17"/><path d="m714.198 410.609h5.182v5.173h-5.182z" fill="#fff" opacity=".01"/><path d="m707.117 410.609h5.181v5.173h-5.181z" fill="#fff" opacity=".48"/><path d="m728.361 417.679h5.182v5.173h-5.182z" fill="#fff" opacity=".28"/><path d="m721.28 417.679h5.182v5.173h-5.182z" fill="#fff" opacity=".02"/><path d="m714.198 417.679h5.182v5.173h-5.182z" fill="#fff" opacity=".17"/><path d="m707.117 417.679h5.181v5.173h-5.181z" fill="#fff" opacity=".42"/><path d="m728.361 424.749h5.182v5.174h-5.182z" fill="#fff" opacity=".11"/><path d="m721.28 424.749h5.182v5.174h-5.182z" fill="#fff" opacity=".02"/><path d="m707.117 424.749h5.181v5.174h-5.181z" fill="#fff" opacity=".3"/><path d="m728.361 431.82h5.182v5.173h-5.182z" fill="#fff" opacity=".19"/><path d="m721.28 431.82h5.182v5.173h-5.182z" fill="#fff" opacity=".05"/><path d="m707.117 431.82h5.181v5.173h-5.181z" fill="#fff" opacity=".2"/><path d="m721.28 438.89h5.182v5.173h-5.182z" fill="#fff" opacity=".27"/><path d="m714.198 438.89h5.182v5.173h-5.182z" fill="#fff" opacity=".13"/><path d="m728.361 445.96h5.182v5.173h-5.182z" fill="#fff" opacity=".46"/><path d="m721.28 445.96h5.182v5.173h-5.182z" fill="#fff" opacity=".12"/><path d="m714.198 445.96h5.182v5.173h-5.182z" fill="#fff" opacity=".04"/><path d="m707.117 445.96h5.181v5.173h-5.181z" fill="#fff" opacity=".3"/><path d="m714.198 325.939h5.182v5.173h-5.182z" fill="#fff" opacity=".08"/><path d="m714.198 340.079h5.182v5.173h-5.182z" fill="#fff" opacity=".08"/><path d="m707.117 347.149h5.181v5.174h-5.181z" fill="#fff" opacity=".01"/><path d="m728.361 354.219h5.182v5.174h-5.182z" fill="#fff" opacity=".15"/><path d="m707.117 354.219h5.181v5.174h-5.181z" fill="#fff" opacity=".12"/><path d="m721.28 368.36h5.182v5.173h-5.182z" fill="#fff" opacity=".13"/><path d="m707.117 368.36h5.181v5.173h-5.181z" fill="#fff" opacity=".07"/><path d="m728.361 382.328h5.182v5.173h-5.182z" fill="#fff" opacity=".02"/><path d="m721.28 382.328h5.182v5.173h-5.182z" fill="#fff" opacity=".02"/><path d="m714.198 382.328h5.182v5.173h-5.182z" fill="#fff" opacity=".14"/><path d="m728.361 396.468h5.182v5.174h-5.182z" fill="#fff" opacity=".09"/><path d="m714.198 396.468h5.182v5.174h-5.182z" fill="#fff" opacity=".02"/><path d="m728.361 403.539h5.182v5.173h-5.182z" fill="#fff" opacity=".19"/><path d="m714.198 403.539h5.182v5.173h-5.182z" fill="#fff" opacity=".06"/><path d="m728.361 410.609h5.182v5.173h-5.182z" fill="#fff" opacity=".16"/><path d="m714.198 424.749h5.182v5.174h-5.182z" fill="#fff" opacity=".04"/><path d="m714.198 431.82h5.182v5.173h-5.182z" fill="#fff" opacity=".04"/><path d="m707.117 438.89h5.181v5.173h-5.181z" fill="#fff" opacity=".18"/><g fill="#e6e6e6" opacity=".7"><path d="m692.781 323.007h5.354v127.091h-5.354z" opacity=".7"/><path d="m683.627 323.007h5.354v127.091h-5.354z" opacity=".7"/><path d="m674.3 323.007h5.354v127.091h-5.354z" opacity=".7"/><path d="m664.973 323.007h5.354v127.091h-5.354z" opacity=".7"/><path d="m655.646 323.007h5.354v127.091h-5.354z" opacity=".7"/></g><path d="m620.584 450.099h107.432l-107.432-93.465z" fill="#333"/><path d="m629.738 433.544h36.962v20.693h-36.962z" fill="#4d4d4d"/><path d="m632.502 428.716h31.435v9.657h-31.435z" fill="#4d4d4d"/><path d="m636.129 431.647h24.354l-8.464-14.14h-7.427z" fill="#4d4d4d"/><path d="m639.583 437.683h17.272v12.588h-17.272z" fill="#fff"/><path d="m637.511 442.684h21.417v2.586h-21.417z" fill="#4d4d4d"/><path d="m464.79 467.515c-.518 13.451 9.845 25.005 23.49 25.522 13.472.517 25.045-10.002 25.563-23.452.518-13.451-9.845-25.005-23.49-25.522-13.472-.517-24.872 10.002-25.563 23.452z" fill="#333"/><path d="m468.935 460.79c-.345 7.76 5.7 14.313 13.473 14.658 7.772.345 14.335-5.691 14.681-13.451.345-7.76-5.7-14.313-13.472-14.658-7.773-.345-14.336 5.691-14.682 13.451z" fill="#4d4d4d"/><path d="m711.435 442.166c0 3.277 2.763 6.036 6.045 6.036s6.045-2.759 6.045-6.036c0-3.276-2.763-6.035-6.045-6.035s-6.045 2.586-6.045 6.035z" fill="#333"/><path d="m709.362 448.202c0 4.483 3.627 8.105 8.118 8.105s8.118-3.622 8.118-8.105c0-4.484-3.627-8.105-8.118-8.105s-8.118 3.621-8.118 8.105z" fill="#333"/><path d="m713.507 436.993c0 2.242 1.728 4.139 3.973 4.139s3.973-1.897 3.973-4.139-1.728-4.139-3.973-4.139-3.973 1.897-3.973 4.139z" fill="#333"/><path d="m712.298 442.166c0 1.897 1.555 3.449 3.455 3.449s3.454-1.552 3.454-3.449-1.554-3.449-3.454-3.449-3.455 1.552-3.455 3.449z" fill="#4d4d4d"/><path d="m714.026 437.51c0 1.38 1.209 2.587 2.59 2.587 1.382 0 2.591-1.207 2.591-2.587 0-1.379-1.209-2.587-2.591-2.587-1.381-.172-2.59 1.035-2.59 2.587z" fill="#4d4d4d"/><path d="m596.23 454.754c0 4.312 3.627 7.933 7.945 7.933s7.946-3.621 7.946-7.933c0-4.311-3.455-7.932-7.946-7.932-4.318 0-7.945 3.621-7.945 7.932z" fill="#333"/><path d="m598.994 448.029c0 2.932 2.245 5.346 5.181 5.346 2.937 0 5.182-2.414 5.182-5.346 0-2.931-2.245-5.346-5.182-5.346-2.763 0-5.181 2.415-5.181 5.346z" fill="#333"/><path d="m599.685 448.546c0 1.897 1.554 3.449 3.454 3.449s3.455-1.552 3.455-3.449-1.555-3.449-3.455-3.449-3.454 1.552-3.454 3.449z" fill="#4d4d4d"/><path d="m606.939 460.618c.864 8.277 8.291 14.14 16.408 13.278 8.291-.862 14.164-8.277 13.3-16.382-.864-8.278-8.291-14.141-16.408-13.278-8.118.862-14.164 8.104-13.3 16.382z" fill="#333"/><path d="m610.739 447.34c.518 5.518 5.354 9.657 10.881 9.139 5.355-.517 9.327-5.518 8.809-11.036s-5.354-9.657-10.881-9.14c-5.527.518-9.327 5.518-8.809 11.037z" fill="#333"/><path d="m612.121 448.374c.345 3.622 3.627 6.208 7.081 5.863 3.627-.345 6.218-3.621 5.873-7.07-.346-3.621-3.627-6.208-7.082-5.863-3.627.345-6.218 3.621-5.872 7.07z" fill="#4d4d4d"/><path d="m528.697 453.375c0 7.588 6.045 13.623 13.645 13.623s13.645-6.035 13.645-13.623-6.045-13.623-13.645-13.623c-7.427 0-13.645 6.035-13.645 13.623z" fill="#333"/><path d="m524.033 466.998c0 10.174 8.291 18.279 18.309 18.279 10.19 0 18.308-8.277 18.308-18.279 0-10.174-8.29-18.279-18.308-18.279s-18.309 8.277-18.309 18.279z" fill="#333"/><path d="m533.533 441.649c0 5.173 3.973 9.312 8.981 9.312 5.009 0 8.982-4.139 8.982-9.312 0-5.174-3.973-9.312-8.982-9.312-5.008.172-8.981 4.311-8.981 9.312z" fill="#333"/><path d="m530.769 453.375c0 4.311 3.455 7.932 7.946 7.932 4.318 0 7.945-3.448 7.945-7.932 0-4.311-3.455-7.932-7.945-7.932-4.318.172-7.946 3.621-7.946 7.932z" fill="#4d4d4d"/><path d="m534.742 442.856c0 3.276 2.591 6.035 6.045 6.035 3.282 0 6.045-2.586 6.045-6.035 0-3.277-2.59-5.863-6.045-5.863-3.454-.173-6.045 2.586-6.045 5.863z" fill="#4d4d4d"/><path d="m558.923 464.756c0 9.657 7.945 17.589 17.617 17.589 9.673 0 17.618-7.932 17.618-17.589s-7.945-17.589-17.618-17.589c-9.672 0-17.617 7.76-17.617 17.589z" fill="#333"/><path d="m564.968 449.581c0 6.553 5.182 11.899 11.572 11.899 6.391 0 11.573-5.346 11.573-11.899s-5.182-11.899-11.573-11.899c-6.39 0-11.572 5.346-11.572 11.899z" fill="#333"/><path d="m566.523 451.133c0 4.311 3.454 7.588 7.772 7.588s7.773-3.449 7.773-7.588c0-4.311-3.455-7.76-7.773-7.76s-7.772 3.449-7.772 7.76z" fill="#4d4d4d"/><path d="m516.261 451.65c0 2.07 1.554 3.622 3.454 3.622s3.455-1.552 3.455-3.622c0-2.069-1.555-3.621-3.455-3.621s-3.454 1.552-3.454 3.621z" fill="#333"/><path d="m441.991 447.34c0 6.725 5.355 12.071 12.091 12.071s12.09-5.346 12.09-12.071c0-6.726-5.354-12.072-12.09-12.072s-12.091 5.346-12.091 12.072z" fill="#333"/><path d="m437.846 459.411c0 8.967 7.254 16.21 16.236 16.21 8.981 0 16.235-7.243 16.235-16.21s-7.254-16.21-16.235-16.21c-8.982 0-16.236 7.243-16.236 16.21z" fill="#333"/><path d="m446.136 436.993c0 4.484 3.628 8.277 7.946 8.277s7.945-3.621 7.945-8.277c0-4.484-3.627-8.277-7.945-8.277s-7.946 3.793-7.946 8.277z" fill="#333"/><path d="m443.891 447.34c0 3.793 3.109 6.897 6.909 6.897s6.909-3.104 6.909-6.897c0-3.794-3.109-6.898-6.909-6.898s-6.909 3.104-6.909 6.898z" fill="#4d4d4d"/><path d="m447.173 438.028c0 2.931 2.418 5.345 5.354 5.345s5.354-2.414 5.354-5.345c0-2.932-2.418-5.346-5.354-5.346s-5.354 2.414-5.354 5.346z" fill="#4d4d4d"/><path d="m396.911 462.515c0 8.967 7.254 16.209 16.236 16.209 8.981 0 16.236-7.242 16.236-16.209s-7.255-16.21-16.236-16.21c-8.982.172-16.236 7.415-16.236 16.21z" fill="#333"/><path d="m402.611 448.719c0 6.036 4.836 11.037 10.536 11.037 5.873 0 10.709-4.829 10.709-11.037 0-6.035-4.836-10.864-10.709-10.864-5.872 0-10.536 4.829-10.536 10.864z" fill="#333"/><path d="m403.993 450.099c0 3.966 3.109 7.07 7.081 7.07 3.973 0 7.082-3.104 7.082-7.07s-3.109-7.07-7.082-7.07c-3.972 0-7.081 3.104-7.081 7.07z" fill="#4d4d4d"/><path d="m132.649 469.068c0 14.83 11.918 26.729 26.772 26.729s26.772-11.899 26.772-26.729c0-14.831-11.918-26.729-26.772-26.729s-26.772 12.071-26.772 26.729z" fill="#333"/><path d="m136.622 461.653c0 8.449 6.909 15.347 15.372 15.347s15.372-6.898 15.372-15.347c0-8.45-6.909-15.348-15.372-15.348s-15.372 6.898-15.372 15.348z" fill="#4d4d4d"/><path d="m98.2778 457.514c0 12.416 10.1902 22.59 22.6262 22.59s22.627-10.174 22.627-22.59-10.191-22.59-22.627-22.59c-12.608 0-22.6262 10.001-22.6262 22.59z" fill="#333"/><path d="m101.732 451.133c0 7.243 5.873 12.934 12.954 12.934 7.255 0 12.954-5.863 12.954-12.934 0-7.07-5.872-12.933-12.954-12.933-7.081 0-12.954 5.863-12.954 12.933z" fill="#4d4d4d"/><path d="m155.966 461.135c0 12.416 10.191 22.59 22.627 22.59s22.626-10.174 22.626-22.59-10.19-22.59-22.626-22.59c-12.609 0-22.627 10.001-22.627 22.59z" fill="#333"/><path d="m159.421 454.755c0 7.242 5.872 12.933 12.954 12.933 7.081 0 12.954-5.863 12.954-12.933 0-7.243-5.873-12.934-12.954-12.934-7.082 0-12.954 5.691-12.954 12.934z" fill="#4d4d4d"/><path d="m225.745 466.309c0 12.416 10.191 22.59 22.627 22.59s22.626-10.174 22.626-22.59-10.19-22.59-22.626-22.59c-12.609 0-22.627 10.174-22.627 22.59z" fill="#333"/><path d="m229.2 459.928c0 7.243 5.872 12.934 12.954 12.934 7.254 0 12.954-5.863 12.954-12.934 0-7.242-5.873-12.933-12.954-12.933-7.082 0-12.954 5.863-12.954 12.933z" fill="#4d4d4d"/><path d="m253.035 462.515c0 12.416 10.191 22.59 22.627 22.59s22.626-10.174 22.626-22.59-10.19-22.59-22.626-22.59-22.627 10.001-22.627 22.59z" fill="#333"/><path d="m256.49 456.134c0 7.243 5.872 12.934 12.954 12.934 7.254 0 12.954-5.863 12.954-12.934 0-7.242-5.873-12.933-12.954-12.933-7.082 0-12.954 5.691-12.954 12.933z" fill="#4d4d4d"/><path d="m235.418 458.893c0 7.243 5.872 12.933 12.954 12.933 7.254 0 12.954-5.863 12.954-12.933 0-7.243-5.873-12.933-12.954-12.933-7.254 0-12.954 5.863-12.954 12.933z" fill="#4d4d4d"/><path d="m331.968 459.928c0 8.105 6.564 14.83 14.854 14.83 8.118 0 14.854-6.553 14.854-14.83 0-8.105-6.563-14.831-14.854-14.831-8.29.173-14.854 6.726-14.854 14.831z" fill="#333"/><path d="m334.214 455.789c0 4.656 3.8 8.45 8.463 8.45s8.463-3.794 8.463-8.45-3.8-8.45-8.463-8.45-8.463 3.794-8.463 8.45z" fill="#4d4d4d"/><path d="m720.071 448.202c0 6.897 5.527 12.416 12.436 12.416s12.436-5.519 12.436-12.416c0-6.898-5.527-12.416-12.436-12.416-6.736-.173-12.436 5.518-12.436 12.416z" fill="#333"/><path d="m715.926 460.618c0 9.312 7.427 16.727 16.754 16.727 9.326 0 16.753-7.415 16.753-16.727s-7.427-16.727-16.753-16.727c-9.327 0-16.754 7.415-16.754 16.727z" fill="#333"/><path d="m724.389 437.51c0 4.656 3.627 8.45 8.291 8.45 4.49 0 8.29-3.794 8.29-8.45s-3.627-8.45-8.29-8.45c-4.664 0-8.291 3.794-8.291 8.45z" fill="#333"/><path d="m721.971 448.201c0 3.967 3.282 7.243 7.254 7.243 3.973 0 7.254-3.276 7.254-7.243 0-3.966-3.281-7.242-7.254-7.242-3.972 0-7.254 3.276-7.254 7.242z" fill="#4d4d4d"/><path d="m725.425 438.545c0 2.931 2.418 5.518 5.527 5.518 2.937 0 5.527-2.414 5.527-5.518 0-2.932-2.418-5.518-5.527-5.518-2.936 0-5.527 2.414-5.527 5.518z" fill="#4d4d4d"/><path d="m661.173 453.03c0 5.519 4.491 10.002 10.018 10.002s10.018-4.483 10.018-10.002c0-5.518-4.491-10.001-10.018-10.001s-10.018 4.483-10.018 10.001z" fill="#333"/><path d="m664.628 444.408c0 3.794 2.936 6.898 6.563 6.898s6.564-3.104 6.564-6.898-2.937-6.898-6.564-6.898c-3.627.173-6.563 3.104-6.563 6.898z" fill="#333"/><path d="m662.728 453.03c0 3.277 2.591 5.863 5.872 5.863 3.282 0 5.873-2.586 5.873-5.863 0-3.104-2.591-5.69-5.873-5.69-3.281-.173-5.872 2.414-5.872 5.69z" fill="#4d4d4d"/><path d="m665.491 445.27c0 2.415 1.9 4.311 4.318 4.311s4.318-1.896 4.318-4.311c0-2.414-1.9-4.311-4.318-4.311-2.418-.172-4.318 1.897-4.318 4.311z" fill="#4d4d4d"/></svg>